<mxfile host="app.diagrams.net" modified="2024-02-27T04:03:12.421Z" agent="Mozilla/5.0 (Windows NT 10.0; Win64; x64) AppleWebKit/537.36 (KHTML, like Gecko) Chrome/115.0.0.0 Safari/537.36" etag="wNqiurB97YPPwI2dJdfP" version="23.1.7" type="google">
  <diagram name="Page-1" id="rajIrvdE216h6X8t07aj">
    <mxGraphModel grid="1" page="1" gridSize="10" guides="1" tooltips="1" connect="1" arrows="1" fold="1" pageScale="1" pageWidth="850" pageHeight="1100" math="0" shadow="0">
      <root>
        <mxCell id="0" />
        <mxCell id="1" parent="0" />
        <mxCell id="Yq_d4B2FdWt1PCw-mtQq-2" value="+----------------+       +-----------------+&#xa;    |    Cliente     |       |     Pedido      |&#xa;    +----------------+       +-----------------+&#xa;    | id_cliente     |       | id_pedido       |&#xa;    | nombre         |       | fecha           |&#xa;    | cedula         |       | total           |&#xa;    | direccion      |       +-----------------+&#xa;    +----------------+       | id_cliente (FK) |&#xa;                             +-----------------+&#xa;                                       |&#xa;                                       |&#xa;                                       |&#xa;                                       v&#xa;                             +------------------+&#xa;                             |     Producto     |&#xa;                             +------------------+&#xa;                             | id_producto      |&#xa;                             | tipo             |&#xa;                             | cantidad         |&#xa;                             | precio_unitario  |&#xa;                             +------------------+&#xa;                             | id_pedido (FK)   |&#xa;                             +------------------+&#xa;                                       |&#xa;                                       |&#xa;                                       |&#xa;                                       v&#xa;                             +-------------------+&#xa;                             |     Empleado      |&#xa;                             +-------------------+&#xa;                             | id_empleado       |&#xa;                             | nombre            |&#xa;                             | cargo             |&#xa;                             +-------------------+&#xa;                             | id_pedido (FK)    |&#xa;                             +-------------------+" style="text;whiteSpace=wrap;" vertex="1" parent="1">
          <mxGeometry x="40" y="60" width="560" height="270" as="geometry" />
        </mxCell>
      </root>
    </mxGraphModel>
  </diagram>
</mxfile>
